<svg id="Layer_1" data-name="Layer 1" xmlns="http://www.w3.org/2000/svg" width="500" height="500" viewBox="0 0 500 500"><defs><style>.cls-1{fill:#fff;}</style></defs><title>basic-animation</title><rect width="500" height="500"/><path class="cls-1" d="M157.441,173.255a67.454,67.454,0,0,1,12.721-1.12c6.96,0,11.44,1.2,14.8,3.92a11.306,11.306,0,0,1,4.48,9.521c0,5.2-3.44,9.76-9.12,11.84v.16c5.12,1.28,11.12,5.52,11.12,13.52a14.534,14.534,0,0,1-4.56,10.8c-3.76,3.44-9.84,5.041-18.64,5.041a81.171,81.171,0,0,1-10.8-.641Zm6.961,22.081h6.32c7.36,0,11.68-3.84,11.68-9.041,0-6.319-4.8-8.8-11.84-8.8a29.773,29.773,0,0,0-6.16.48Zm0,25.84a37.046,37.046,0,0,0,5.84.321c7.2,0,13.84-2.641,13.84-10.481,0-7.36-6.32-10.4-13.92-10.4H164.4Z"/><path class="cls-1" d="M209.521,209.5l-5.6,16.961h-7.2l18.32-53.922h8.4l18.4,53.922H234.4L228.642,209.5Zm17.68-5.44-5.28-15.52c-1.2-3.52-2-6.721-2.8-9.841h-.16c-.8,3.2-1.68,6.481-2.72,9.761l-5.28,15.6Z"/><path class="cls-1" d="M248.8,217.977a24.674,24.674,0,0,0,12.48,3.52c7.12,0,11.281-3.761,11.281-9.2,0-5.04-2.88-7.92-10.161-10.72-8.8-3.12-14.24-7.68-14.24-15.281,0-8.4,6.96-14.64,17.441-14.64a24.51,24.51,0,0,1,11.919,2.64l-1.919,5.681a21.48,21.48,0,0,0-10.241-2.56c-7.36,0-10.16,4.4-10.16,8.08,0,5.04,3.28,7.52,10.72,10.4,9.12,3.52,13.761,7.92,13.761,15.84,0,8.321-6.161,15.52-18.881,15.52-5.2,0-10.88-1.52-13.76-3.44Z"/><path class="cls-1" d="M296.16,172.535v53.922H289.2V172.535Z"/><path class="cls-1" d="M346,224.7c-2.56,1.281-7.68,2.56-14.24,2.56-15.2,0-26.641-9.6-26.641-27.28,0-16.88,11.441-28.321,28.161-28.321,6.72,0,10.96,1.44,12.8,2.4l-1.68,5.68a25.367,25.367,0,0,0-10.88-2.239c-12.64,0-21.041,8.08-21.041,22.24,0,13.2,7.6,21.681,20.721,21.681a27.851,27.851,0,0,0,11.361-2.241Z"/><path class="cls-1" d="M67.962,305.5l-5.6,16.961h-7.2l18.32-53.922h8.4l18.4,53.922h-7.44L87.083,305.5Zm17.681-5.439-5.281-15.521c-1.2-3.52-2-6.721-2.8-9.841H77.4c-.8,3.2-1.68,6.481-2.72,9.761l-5.28,15.6Z"/><path class="cls-1" d="M108.2,322.457V268.535h7.6l17.281,27.281a152.64,152.64,0,0,1,9.68,17.521l.159-.08c-.639-7.2-.8-13.761-.8-22.161V268.535h6.56v53.922h-7.04L124.522,295.1a171.146,171.146,0,0,1-10.08-18l-.24.08c.4,6.8.56,13.28.56,22.24v23.041Z"/><path class="cls-1" d="M167.8,268.535v53.922h-6.96V268.535Z"/><path class="cls-1" d="M225.4,298.776c-.4-7.52-.88-16.56-.8-23.28h-.24c-1.84,6.319-4.08,13.04-6.8,20.481l-9.52,26.16h-5.28l-8.72-25.681c-2.561-7.6-4.721-14.56-6.241-20.96h-.16c-.16,6.72-.56,15.76-1.04,23.84l-1.44,23.121h-6.64l3.76-53.922h8.88l9.2,26.081c2.241,6.64,4.08,12.561,5.441,18.16h.24c1.36-5.439,3.28-11.36,5.68-18.16l9.6-26.081h8.88l3.361,53.922h-6.8Z"/><path class="cls-1" d="M252.2,305.5l-5.6,16.961h-7.2l18.321-53.922h8.4l18.4,53.922h-7.44l-5.76-16.961Zm17.68-5.439-5.28-15.521c-1.2-3.52-2-6.721-2.8-9.841h-.16c-.8,3.2-1.68,6.481-2.72,9.761l-5.28,15.6Z"/><path class="cls-1" d="M296.521,274.456h-16.4v-5.921h39.921v5.921h-16.48v48h-7.041Z"/><path class="cls-1" d="M333,268.535v53.922h-6.96V268.535Z"/><path class="cls-1" d="M391.242,294.937c0,18.559-11.28,28.4-25.04,28.4-14.241,0-24.241-11.04-24.241-27.36,0-17.122,10.641-28.322,25.041-28.322C381.722,267.655,391.242,278.936,391.242,294.937Zm-41.841.879c0,11.521,6.241,21.84,17.2,21.84,11.04,0,17.28-10.16,17.28-22.4,0-10.72-5.6-21.92-17.2-21.92C355.161,273.336,349.4,283.976,349.4,295.816Z"/><path class="cls-1" d="M400.28,322.457V268.535h7.6l17.28,27.281a152.64,152.64,0,0,1,9.68,17.521l.16-.08c-.64-7.2-.8-13.761-.8-22.161V268.535h6.561v53.922h-7.041L416.6,295.1a170.966,170.966,0,0,1-10.08-18l-.241.08c.4,6.8.561,13.28.561,22.24v23.041Z"/></svg>
