<svg id="Layer_1" data-name="Layer 1" xmlns="http://www.w3.org/2000/svg" width="500" height="500" viewBox="0 0 500 500"><defs><style>.cls-1{fill:#fff;}</style></defs><title>basic-ux</title><rect width="500" height="500"/><path class="cls-1" d="M157.441,173.255a67.454,67.454,0,0,1,12.721-1.12c6.96,0,11.44,1.2,14.8,3.92a11.306,11.306,0,0,1,4.48,9.521c0,5.2-3.44,9.76-9.12,11.84v.16c5.12,1.28,11.12,5.52,11.12,13.52a14.534,14.534,0,0,1-4.56,10.8c-3.76,3.44-9.84,5.041-18.64,5.041a81.171,81.171,0,0,1-10.8-.641Zm6.961,22.081h6.32c7.36,0,11.68-3.84,11.68-9.041,0-6.319-4.8-8.8-11.84-8.8a29.773,29.773,0,0,0-6.16.48Zm0,25.84a37.046,37.046,0,0,0,5.84.321c7.2,0,13.84-2.641,13.84-10.481,0-7.36-6.32-10.4-13.92-10.4H164.4Z"/><path class="cls-1" d="M209.521,209.5l-5.6,16.961h-7.2l18.32-53.922h8.4l18.4,53.922H234.4L228.642,209.5Zm17.68-5.44-5.28-15.52c-1.2-3.52-2-6.721-2.8-9.841h-.16c-.8,3.2-1.68,6.481-2.72,9.761l-5.28,15.6Z"/><path class="cls-1" d="M248.8,217.977a24.674,24.674,0,0,0,12.48,3.52c7.12,0,11.281-3.761,11.281-9.2,0-5.04-2.88-7.92-10.161-10.72-8.8-3.12-14.24-7.68-14.24-15.281,0-8.4,6.96-14.64,17.441-14.64a24.51,24.51,0,0,1,11.919,2.64l-1.919,5.681a21.48,21.48,0,0,0-10.241-2.56c-7.36,0-10.16,4.4-10.16,8.08,0,5.04,3.28,7.52,10.72,10.4,9.12,3.52,13.761,7.92,13.761,15.84,0,8.321-6.161,15.52-18.881,15.52-5.2,0-10.88-1.52-13.76-3.44Z"/><path class="cls-1" d="M296.16,172.535v53.922H289.2V172.535Z"/><path class="cls-1" d="M346,224.7c-2.56,1.281-7.68,2.56-14.24,2.56-15.2,0-26.641-9.6-26.641-27.28,0-16.88,11.441-28.321,28.161-28.321,6.72,0,10.96,1.44,12.8,2.4l-1.68,5.68a25.367,25.367,0,0,0-10.88-2.239c-12.64,0-21.041,8.08-21.041,22.24,0,13.2,7.6,21.681,20.721,21.681a27.851,27.851,0,0,0,11.361-2.241Z"/><path class="cls-1" d="M214.32,268.535v31.921c0,12.08,5.361,17.2,12.561,17.2,8,0,13.12-5.279,13.12-17.2V268.535h7.04v31.442c0,16.56-8.72,23.36-20.4,23.36-11.04,0-19.361-6.32-19.361-23.041V268.535Z"/><path class="cls-1" d="M288.64,322.457l-6.88-11.921c-2.8-4.559-4.561-7.519-6.24-10.64h-.161c-1.519,3.121-3.04,6-5.839,10.72l-6.481,11.841h-8l16.481-27.281-15.841-26.641h8.081l7.12,12.641c2,3.52,3.519,6.24,4.96,9.12h.239c1.521-3.2,2.881-5.68,4.881-9.12l7.36-12.641h8l-16.4,26.241,16.8,27.681Z"/></svg>
