<svg id="Layer_1" data-name="Layer 1" xmlns="http://www.w3.org/2000/svg" viewBox="0 0 500 500"><defs><style>.cls-1{fill:#2f786f;}.cls-2{fill:#fff;}</style></defs><title>basic-content</title><rect class="cls-1" width="500" height="500"/><path class="cls-2" d="M157.44,173.26a67.44,67.44,0,0,1,12.72-1.12c7,0,11.44,1.2,14.8,3.92a11.31,11.31,0,0,1,4.48,9.52c0,5.2-3.44,9.76-9.12,11.84v.16c5.12,1.28,11.12,5.52,11.12,13.52a14.53,14.53,0,0,1-4.56,10.8c-3.76,3.44-9.84,5-18.64,5a81.37,81.37,0,0,1-10.8-.64Zm7,22.08h6.32c7.36,0,11.68-3.84,11.68-9,0-6.32-4.8-8.8-11.84-8.8a29.85,29.85,0,0,0-6.16.48Zm0,25.84a37.19,37.19,0,0,0,5.84.32c7.2,0,13.84-2.64,13.84-10.48,0-7.36-6.32-10.4-13.92-10.4H164.4Z"/><path class="cls-2" d="M209.52,209.5l-5.6,17h-7.2L215,172.54h8.4l18.4,53.92H234.4l-5.76-17Zm17.68-5.44-5.28-15.52c-1.2-3.52-2-6.72-2.8-9.84H219c-.8,3.2-1.68,6.48-2.72,9.76L211,204.06Z"/><path class="cls-2" d="M248.8,218a24.66,24.66,0,0,0,12.48,3.52c7.12,0,11.28-3.76,11.28-9.2,0-5-2.88-7.92-10.16-10.72-8.8-3.12-14.24-7.68-14.24-15.28,0-8.4,7-14.64,17.44-14.64a24.5,24.5,0,0,1,11.92,2.64L275.6,180a21.47,21.47,0,0,0-10.24-2.56c-7.36,0-10.16,4.4-10.16,8.08,0,5,3.28,7.52,10.72,10.4,9.12,3.52,13.76,7.92,13.76,15.84,0,8.32-6.16,15.52-18.88,15.52-5.2,0-10.88-1.52-13.76-3.44Z"/><path class="cls-2" d="M296.16,172.54v53.92h-7V172.54Z"/><path class="cls-2" d="M346,224.7c-2.56,1.28-7.68,2.56-14.24,2.56-15.2,0-26.64-9.6-26.64-27.28,0-16.88,11.44-28.32,28.16-28.32,6.72,0,11,1.44,12.8,2.4l-1.68,5.68a25.35,25.35,0,0,0-10.88-2.24c-12.64,0-21,8.08-21,22.24,0,13.2,7.6,21.68,20.72,21.68a27.86,27.86,0,0,0,11.36-2.24Z"/><path class="cls-2" d="M131.76,320.7c-2.56,1.28-7.68,2.56-14.24,2.56-15.2,0-26.64-9.6-26.64-27.28,0-16.88,11.44-28.32,28.16-28.32,6.72,0,11,1.44,12.8,2.4l-1.68,5.68a25.35,25.35,0,0,0-10.88-2.24c-12.64,0-21,8.08-21,22.24,0,13.2,7.6,21.68,20.72,21.68a27.86,27.86,0,0,0,11.36-2.24Z"/><path class="cls-2" d="M184.88,294.94c0,18.56-11.28,28.4-25,28.4-14.24,0-24.24-11-24.24-27.36,0-17.12,10.64-28.32,25-28.32C175.36,267.66,184.88,278.94,184.88,294.94Zm-41.84.88c0,11.52,6.24,21.84,17.2,21.84s17.28-10.16,17.28-22.4c0-10.72-5.6-21.92-17.2-21.92S143,284,143,295.82Z"/><path class="cls-2" d="M193.92,322.46V268.54h7.6l17.28,27.28a152.63,152.63,0,0,1,9.68,17.52l.16-.08c-.64-7.2-.8-13.76-.8-22.16V268.54h6.56v53.92h-7L210.24,295.1a171.15,171.15,0,0,1-10.08-18l-.24.08c.4,6.8.56,13.28.56,22.24v23Z"/><path class="cls-2" d="M256.8,274.46H240.4v-5.92h39.92v5.92H263.84v48h-7Z"/><path class="cls-2" d="M314.24,297.18h-21v19.44h23.36v5.84H286.32V268.54h29.12v5.84H293.28v17h21Z"/><path class="cls-2" d="M325.68,322.46V268.54h7.6l17.28,27.28a152.63,152.63,0,0,1,9.68,17.52l.16-.08c-.64-7.2-.8-13.76-.8-22.16V268.54h6.56v53.92h-7L342,295.1a171.15,171.15,0,0,1-10.08-18l-.24.08c.4,6.8.56,13.28.56,22.24v23Z"/><path class="cls-2" d="M388.56,274.46h-16.4v-5.92h39.92v5.92H395.6v48h-7Z"/></svg>
