<svg id="Layer_1" data-name="Layer 1" xmlns="http://www.w3.org/2000/svg" width="500" height="500" viewBox="0 0 500 500"><defs><style>.cls-1{fill:#fff;}</style></defs><title>basic-web</title><rect width="500" height="500"/><path class="cls-1" d="M157.441,173.255a67.454,67.454,0,0,1,12.721-1.12c6.96,0,11.44,1.2,14.8,3.92a11.306,11.306,0,0,1,4.48,9.521c0,5.2-3.44,9.76-9.12,11.84v.16c5.12,1.28,11.12,5.52,11.12,13.52a14.534,14.534,0,0,1-4.56,10.8c-3.76,3.44-9.84,5.041-18.64,5.041a81.171,81.171,0,0,1-10.8-.641Zm6.961,22.081h6.32c7.36,0,11.68-3.84,11.68-9.041,0-6.319-4.8-8.8-11.84-8.8a29.773,29.773,0,0,0-6.16.48Zm0,25.84a37.046,37.046,0,0,0,5.84.321c7.2,0,13.84-2.641,13.84-10.481,0-7.36-6.32-10.4-13.92-10.4H164.4Z"/><path class="cls-1" d="M209.521,209.5l-5.6,16.961h-7.2l18.32-53.922h8.4l18.4,53.922H234.4L228.642,209.5Zm17.68-5.44-5.28-15.52c-1.2-3.52-2-6.721-2.8-9.841h-.16c-.8,3.2-1.68,6.481-2.72,9.761l-5.28,15.6Z"/><path class="cls-1" d="M248.8,217.977a24.674,24.674,0,0,0,12.48,3.52c7.12,0,11.281-3.761,11.281-9.2,0-5.04-2.88-7.92-10.161-10.72-8.8-3.12-14.24-7.68-14.24-15.281,0-8.4,6.96-14.64,17.441-14.64a24.51,24.51,0,0,1,11.919,2.64l-1.919,5.681a21.48,21.48,0,0,0-10.241-2.56c-7.36,0-10.16,4.4-10.16,8.08,0,5.04,3.28,7.52,10.72,10.4,9.12,3.52,13.761,7.92,13.761,15.84,0,8.321-6.161,15.52-18.881,15.52-5.2,0-10.88-1.52-13.76-3.44Z"/><path class="cls-1" d="M296.16,172.535v53.922H289.2V172.535Z"/><path class="cls-1" d="M346,224.7c-2.56,1.281-7.68,2.56-14.24,2.56-15.2,0-26.641-9.6-26.641-27.28,0-16.88,11.441-28.321,28.161-28.321,6.72,0,10.96,1.44,12.8,2.4l-1.68,5.68a25.367,25.367,0,0,0-10.88-2.239c-12.64,0-21.041,8.08-21.041,22.24,0,13.2,7.6,21.681,20.721,21.681a27.851,27.851,0,0,0,11.361-2.241Z"/><path class="cls-1" d="M189.681,322.457,176,268.535h7.36l6.4,27.281c1.6,6.72,3.04,13.441,4,18.641h.16c.88-5.36,2.56-11.761,4.4-18.721l7.2-27.2H212.8l6.559,27.361c1.521,6.4,2.961,12.8,3.761,18.481h.16c1.12-5.921,2.64-11.921,4.32-18.641l7.12-27.2h7.121l-15.281,53.922h-7.28l-6.8-28.081a162.808,162.808,0,0,1-3.52-17.6H208.8a168.66,168.66,0,0,1-4.16,17.6l-7.681,28.081Z"/><path class="cls-1" d="M276.481,297.176h-20.96v19.44h23.36v5.841h-30.32V268.535h29.121v5.841H255.521v17.04h20.96Z"/><path class="cls-1" d="M287.92,269.256a67.362,67.362,0,0,1,12.721-1.12c6.96,0,11.439,1.2,14.8,3.92a11.306,11.306,0,0,1,4.481,9.52c0,5.2-3.441,9.76-9.12,11.84v.16c5.12,1.28,11.12,5.521,11.12,13.521a14.529,14.529,0,0,1-4.561,10.8c-3.759,3.441-9.839,5.041-18.639,5.041a81.371,81.371,0,0,1-10.8-.64Zm6.96,22.08h6.32c7.361,0,11.681-3.84,11.681-9.04,0-6.32-4.8-8.8-11.841-8.8a29.781,29.781,0,0,0-6.16.48Zm0,25.841a37.2,37.2,0,0,0,5.841.32c7.2,0,13.84-2.641,13.84-10.48,0-7.361-6.321-10.4-13.92-10.4H294.88Z"/></svg>
