<svg id="Layer_1" data-name="Layer 1" xmlns="http://www.w3.org/2000/svg" viewBox="0 0 500 500"><defs><style>.cls-1{fill:#2f786f;}.cls-2{fill:#fff;}</style></defs><title>basic-ux</title><rect class="cls-1" width="500" height="500"/><path class="cls-2" d="M157.44,173.26a67.44,67.44,0,0,1,12.72-1.12c7,0,11.44,1.2,14.8,3.92a11.31,11.31,0,0,1,4.48,9.52c0,5.2-3.44,9.76-9.12,11.84v.16c5.12,1.28,11.12,5.52,11.12,13.52a14.53,14.53,0,0,1-4.56,10.8c-3.76,3.44-9.84,5-18.64,5a81.37,81.37,0,0,1-10.8-.64Zm7,22.08h6.32c7.36,0,11.68-3.84,11.68-9,0-6.32-4.8-8.8-11.84-8.8a29.85,29.85,0,0,0-6.16.48Zm0,25.84a37.19,37.19,0,0,0,5.84.32c7.2,0,13.84-2.64,13.84-10.48,0-7.36-6.32-10.4-13.92-10.4H164.4Z"/><path class="cls-2" d="M209.52,209.5l-5.6,17h-7.2L215,172.54h8.4l18.4,53.92H234.4l-5.76-17Zm17.68-5.44-5.28-15.52c-1.2-3.52-2-6.72-2.8-9.84H219c-.8,3.2-1.68,6.48-2.72,9.76L211,204.06Z"/><path class="cls-2" d="M248.8,218a24.66,24.66,0,0,0,12.48,3.52c7.12,0,11.28-3.76,11.28-9.2,0-5-2.88-7.92-10.16-10.72-8.8-3.12-14.24-7.68-14.24-15.28,0-8.4,7-14.64,17.44-14.64a24.5,24.5,0,0,1,11.92,2.64L275.6,180a21.47,21.47,0,0,0-10.24-2.56c-7.36,0-10.16,4.4-10.16,8.08,0,5,3.28,7.52,10.72,10.4,9.12,3.52,13.76,7.92,13.76,15.84,0,8.32-6.16,15.52-18.88,15.52-5.2,0-10.88-1.52-13.76-3.44Z"/><path class="cls-2" d="M296.16,172.54v53.92h-7V172.54Z"/><path class="cls-2" d="M346,224.7c-2.56,1.28-7.68,2.56-14.24,2.56-15.2,0-26.64-9.6-26.64-27.28,0-16.88,11.44-28.32,28.16-28.32,6.72,0,11,1.44,12.8,2.4l-1.68,5.68a25.35,25.35,0,0,0-10.88-2.24c-12.64,0-21,8.08-21,22.24,0,13.2,7.6,21.68,20.72,21.68a27.86,27.86,0,0,0,11.36-2.24Z"/><path class="cls-2" d="M214.32,268.54v31.92c0,12.08,5.36,17.2,12.56,17.2,8,0,13.12-5.28,13.12-17.2V268.54h7V300c0,16.56-8.72,23.36-20.4,23.36-11,0-19.36-6.32-19.36-23V268.54Z"/><path class="cls-2" d="M288.64,322.46l-6.88-11.92C279,306,277.2,303,275.52,299.9h-.16c-1.52,3.12-3,6-5.84,10.72L263,322.46h-8l16.48-27.28-15.84-26.64h8.08l7.12,12.64c2,3.52,3.52,6.24,5,9.12h.24c1.52-3.2,2.88-5.68,4.88-9.12l7.36-12.64h8l-16.4,26.24,16.8,27.68Z"/></svg>
