<svg id="Layer_1" data-name="Layer 1" xmlns="http://www.w3.org/2000/svg" width="86" height="86" viewBox="0 0 86 86"><defs><style>.cls-1{fill:#343434;}</style></defs><title>logo-outlined-stroke</title><path class="cls-1" d="M56.175,79.931H30.994V35.539h3.959V76.231H56.175Z" transform="translate(-17 -13)"/><path class="cls-1" d="M74.087,38.654A8.7,8.7,0,0,0,68.116,40.5a5.883,5.883,0,0,0-2.076,4.576,8.138,8.138,0,0,0,.908,4.024,8.538,8.538,0,0,0,2.4,2.726,15.567,15.567,0,0,0,3.407,1.882q1.912.778,3.991,1.493a48.01,48.01,0,0,1,4.479,1.849,17.524,17.524,0,0,1,4.088,2.661,12.65,12.65,0,0,1,2.954,3.829,11.9,11.9,0,0,1,1.135,5.42,10.451,10.451,0,0,1-1.3,5.387,10.864,10.864,0,0,1-3.407,3.6,14.41,14.41,0,0,1-4.835,2.012,25.215,25.215,0,0,1-5.581.617,23.074,23.074,0,0,1-8.015-1.395,26.059,26.059,0,0,1-6.523-3.408l2.142-3.115q1.231.778,2.661,1.525a30.985,30.985,0,0,0,3.083,1.395A22.152,22.152,0,0,0,71.1,76.621,18.592,18.592,0,0,0,75,77.01a18.023,18.023,0,0,0,3.959-.422,9.851,9.851,0,0,0,3.31-1.362,6.913,6.913,0,0,0,2.271-2.467,7.76,7.76,0,0,0,.844-3.8,8.191,8.191,0,0,0-.908-3.992,9.555,9.555,0,0,0-2.4-2.856,15.81,15.81,0,0,0-3.44-2.076q-1.947-.876-4.024-1.655Q72.4,57.541,70.161,56.6A16.835,16.835,0,0,1,66.1,54.2a11.31,11.31,0,0,1-2.953-3.634,11.779,11.779,0,0,1-1.135-5.484,8.708,8.708,0,0,1,.876-3.829,9.368,9.368,0,0,1,2.531-3.181A12.768,12.768,0,0,1,69.447,35.9a16.243,16.243,0,0,1,5.289-.812q1.947,0,3.44.065t2.4.065a9.953,9.953,0,0,0,3.473-.487,8.162,8.162,0,0,0,2.628-1.785l2.141,2.207A9.949,9.949,0,0,1,87,37.1a7.41,7.41,0,0,1-1.915,1.1,7.678,7.678,0,0,1-2.109.487q-1.105.1-2.4.1-1.1,0-2.855-.065T74.087,38.654Z" transform="translate(-17 -13)"/><path class="cls-1" d="M98,99H17V18H98ZM18,98H97V19H18Z" transform="translate(-17 -13)"/><path class="cls-1" d="M103,94H22V13h81ZM23,93h79V14H23Z" transform="translate(-17 -13)"/></svg>
