<svg id="Layer_1" data-name="Layer 1" xmlns="http://www.w3.org/2000/svg" viewBox="0 0 80 80"><defs><style>.cls-1{fill:#2f786f;}.cls-2{fill:#fff;}</style></defs><title>behance-hover</title><rect class="cls-1" x="16.29" y="16.29" width="47.43" height="47.43" rx="8.47"/><path class="cls-2" d="M36.46,47.87A4.54,4.54,0,0,0,38.34,47a4.43,4.43,0,0,0,1.17-1.3,4.79,4.79,0,0,0,.74-2.65,4.32,4.32,0,0,0-.65-2.43,3.71,3.71,0,0,0-1.91-1.47A3.94,3.94,0,0,0,39,38.24a3.67,3.67,0,0,0,.77-2.45A4.19,4.19,0,0,0,39,33.26c-.84-1.15-2.28-1.74-4.3-1.77h-8v16.6h7.48A11.52,11.52,0,0,0,36.46,47.87Zm-6.52-13.5h3.62a6.37,6.37,0,0,1,2,.26,1.49,1.49,0,0,1,.89,1.53,1.58,1.58,0,0,1-.67,1.46A3.3,3.3,0,0,1,34,38h-4Zm0,10.84V40.78H34a4.25,4.25,0,0,1,1.66.28,1.8,1.8,0,0,1,1.06,1.78,2.11,2.11,0,0,1-1.09,2.08,4,4,0,0,1-1.68.29Z"/><path class="cls-2" d="M43.06,47a6.68,6.68,0,0,0,4.33,1.51A6,6,0,0,0,52,46.72,4,4,0,0,0,53.2,44.5H49.92a2.62,2.62,0,0,1-.66.84,2.7,2.7,0,0,1-1.78.57,3.33,3.33,0,0,1-1.77-.46,3,3,0,0,1-1.29-2.6h8.95a15.75,15.75,0,0,0-.11-2.43,6.11,6.11,0,0,0-1-2.54,5,5,0,0,0-2.12-1.82,7.07,7.07,0,0,0-2.89-.57,5.94,5.94,0,0,0-4.39,1.7,6.65,6.65,0,0,0-1.69,4.89Q41.19,45.49,43.06,47Zm2.3-8.16a2.52,2.52,0,0,1,1.91-.7,2.83,2.83,0,0,1,1.91.66A2.69,2.69,0,0,1,50,40.74H44.5A3.33,3.33,0,0,1,45.36,38.84Z"/><rect class="cls-2" x="43.45" y="32.44" width="7.22" height="1.68"/></svg>
