<svg id="Layer_1" data-name="Layer 1" xmlns="http://www.w3.org/2000/svg" viewBox="0 0 80 80"><defs><style>.cls-1{fill:#2f786f;}.cls-2{fill:#fff;}</style></defs><title>insta-hover</title><rect class="cls-1" x="16.29" y="16.29" width="47.43" height="47.43" rx="8.47"/><path class="cls-2" d="M40,29.34c3.47,0,3.88,0,5.25.08a7.3,7.3,0,0,1,2.42.44,4.41,4.41,0,0,1,2.47,2.47,7.3,7.3,0,0,1,.44,2.42c.07,1.37.08,1.78.08,5.25s0,3.88-.08,5.25a7.3,7.3,0,0,1-.44,2.42,4.41,4.41,0,0,1-2.47,2.47,7.3,7.3,0,0,1-2.42.44c-1.37.07-1.78.08-5.25.08s-3.88,0-5.25-.08a7.3,7.3,0,0,1-2.42-.44,4.41,4.41,0,0,1-2.47-2.47,7.3,7.3,0,0,1-.44-2.42c-.07-1.37-.08-1.78-.08-5.25s0-3.88.08-5.25a7.3,7.3,0,0,1,.44-2.42,4.41,4.41,0,0,1,2.47-2.47,7.3,7.3,0,0,1,2.42-.44c1.37-.07,1.78-.08,5.25-.08M40,27c-3.53,0-4,0-5.36.08a9.57,9.57,0,0,0-3.16.6,6.66,6.66,0,0,0-3.8,3.8,9.57,9.57,0,0,0-.6,3.16C27,36,27,36.47,27,40s0,4,.08,5.36a9.57,9.57,0,0,0,.6,3.16,6.66,6.66,0,0,0,3.8,3.8,9.57,9.57,0,0,0,3.16.6C36,53,36.47,53,40,53s4,0,5.36-.08a9.57,9.57,0,0,0,3.16-.6,6.66,6.66,0,0,0,3.8-3.8,9.57,9.57,0,0,0,.6-3.16C53,44,53,43.53,53,40s0-4-.08-5.36a9.57,9.57,0,0,0-.6-3.16,6.66,6.66,0,0,0-3.8-3.8,9.57,9.57,0,0,0-3.16-.6C44,27,43.53,27,40,27"/><path class="cls-2" d="M40,33.32A6.68,6.68,0,1,0,46.68,40,6.68,6.68,0,0,0,40,33.32m0,11A4.33,4.33,0,1,1,44.33,40,4.33,4.33,0,0,1,40,44.33"/><path class="cls-2" d="M48.5,33.06a1.56,1.56,0,1,1-1.56-1.56,1.56,1.56,0,0,1,1.56,1.56"/></svg>
