<svg id="Layer_1" data-name="Layer 1" xmlns="http://www.w3.org/2000/svg" viewBox="0 0 80 80"><defs><style>.cls-1{fill:#2f786f;}.cls-2{fill:#fff;}</style></defs><title>pinterest-hover</title><rect class="cls-1" x="16.29" y="16.29" width="47.43" height="47.43" rx="8.47"/><path class="cls-2" d="M32.41,42.2a.55.55,0,0,0,.81-.4c.08-.28.25-1,.33-1.3a.77.77,0,0,0-.23-.9,4.67,4.67,0,0,1-1.07-3.17,7.66,7.66,0,0,1,8-7.75c4.34,0,6.73,2.65,6.73,6.2,0,4.66-2.07,8.6-5.13,8.6a2.51,2.51,0,0,1-2.56-3.12c.49-2,1.43-4.26,1.43-5.74a2.17,2.17,0,0,0-2.18-2.43c-1.73,0-3.12,1.79-3.12,4.19a6.17,6.17,0,0,0,.52,2.56l-2.08,8.82a17.92,17.92,0,0,0,0,6.14.21.21,0,0,0,.38.1,17.36,17.36,0,0,0,2.92-5.3c.2-.72,1.14-4.44,1.14-4.44a4.64,4.64,0,0,0,4,2c5.2,0,8.73-4.74,8.73-11.08,0-4.8-4.06-9.27-10.24-9.27C33,25.92,29.1,31.43,29.1,36,29.1,38.81,30.15,41.28,32.41,42.2Z"/></svg>
